Coordinates
version=1
nRows=18
nColumns=22
inDegrees=yes

Units are S.I. units (second, meters, Newtons, ...)
If the header above contains a line with 'inDegrees', this indicates whether rotational values are in degrees (yes) or radians (no).

endheader
time	pelvis_tilt	pelvis_list	pelvis_rotation	pelvis_tx	pelvis_ty	pelvis_tz	hip_flexion_r	hip_adduction_r	hip_rotation_r	knee_angle_r	ankle_angle_r	subtalar_angle_r	hip_flexion_l	hip_adduction_l	hip_rotation_l	knee_angle_l	ankle_angle_l	subtalar_angle_l	lumbar_extension	lumbar_bending	lumbar_rotation
      4.56000000	      6.83702841	      0.91287519	   -180.67320814	     -0.38944367	      0.81879111	     -0.40787801	     37.99438234	     -3.24411932	      3.69563021	    -13.81844769	    -11.28136902	      1.04166927	    -11.97669939	     -5.12232933	      6.92733624	    -15.63995058	     28.22338070	      4.04483418	     -2.32733998	      7.31650042	     -4.79807045
      4.57000000	      7.12055721	      1.36953689	   -181.03007679	     -0.39803384	      0.81852021	     -0.41150104	     38.83372378	     -2.23748630	      3.85478907	    -15.73025381	    -11.73324883	     -0.47703797	    -12.09777775	     -5.75975564	      6.70267200	    -16.13905355	     27.51898379	      4.46963718	     -2.34718394	      7.98861856	     -4.25449610
      4.58000000	      7.40575392	      1.85089801	   -181.48284541	     -0.40649427	      0.81888434	     -0.41519055	     39.59772215	     -1.15606835	      4.10223221	    -17.59093368	    -11.61545526	     -1.77723266	    -12.15932363	     -6.38324173	      6.49256667	    -16.74493789	     26.60275039	      4.83206987	     -2.41214835	      8.69558019	     -3.64954636
      4.59000000	      7.69476697	      2.31601591	   -181.99252990	     -0.41486477	      0.81985497	     -0.41889420	     40.20686065	     -0.07456333	      4.41742817	    -19.23418122	    -11.13468283	     -2.74638463	    -12.15142118	     -6.96015413	      6.32269903	    -17.45201367	     25.44734359	      5.16690791	     -2.50238915	      9.38729778	     -3.04550419
      4.60000000	      7.98886482	      2.72303968	   -182.50933917	     -0.42317610	      0.82137316	     -0.42254560	     40.60819261	      0.92776895	      4.76235448	    -20.54184126	    -10.44322162	     -3.37488750	    -12.05711219	     -7.45991098	      6.23168311	    -18.25819846	     24.04480063	      5.51299800	     -2.59445029	     10.01350266	     -2.49290969
      4.61000000	      8.28876299	      3.02387182	   -182.98456884	     -0.43143073	      0.82334345	     -0.42610467	     40.79568198	      1.77330210	      5.09582027	    -21.47652318	     -9.66396056	     -3.74523988	    -11.85746746	     -7.84818997	      6.25967897	    -19.15649924	     22.40826512	      5.92433812	     -2.66478879	     10.50979258	     -2.04363921
      4.62000000	      8.58247961	      3.16243168	   -183.38151467	     -0.43959480	      0.82566882	     -0.42951249	     40.79047333	      2.38972139	      5.41192968	    -22.07103193	     -8.86393269	     -3.92426746	    -11.53305978	     -8.07403459	      6.41745125	    -20.16022360	     20.55812704	      6.38865437	     -2.71005731	     10.81275588	     -1.72646601
      4.63000000	      8.87674001	      3.13107398	   -183.65215394	     -0.44765635	      0.82823866	     -0.43271376	     40.63647674	      2.74066736	      5.64276676	    -22.37524571	     -8.09950510	     -4.03924823	    -11.06324896	     -8.14178093	      6.75504104	    -21.25331762	     18.52447434	      7.03537338	     -2.70110213	     10.90937759	     -1.56770896
      4.64000000	      9.17919598	      2.95618733	   -183.80969424	     -0.45559861	      0.83093327	     -0.43575612	     40.38191970	      2.87045868	      5.80564683	    -22.45326332	     -7.39018063	     -4.12706377	    -10.43114940	     -8.08691882	      7.17528600	    -22.45223160	     16.38739622	      7.94870193	     -2.62614093	     10.82858085	     -1.54035171
      4.65000000	      9.45463837	      2.59209095	   -183.84214266	     -0.46334488	      0.83371863	     -0.43857020	     40.05047542	      2.73257196	      5.91407332	    -22.39544787	     -6.72698844	     -4.21830568	     -9.65509442	     -7.84654297	      7.69961116	    -23.76531303	     14.18968260	      8.96186497	     -2.52987412	     10.51477637	     -1.63584953
      4.66000000	      9.71292219	      2.11377422	   -183.76792960	     -0.47089040	      0.83652624	     -0.44118641	     39.66371457	      2.40963474	      5.95020779	    -22.22770247	     -6.12525817	     -4.33875954	     -8.73310796	     -7.50130066	      8.24331667	    -25.20562116	     12.04028531	     10.17397531	     -2.40995477	     10.05414562	     -1.81218820
      4.67000000	      9.94871457	      1.58019431	   -183.61214824	     -0.47822889	      0.83932673	     -0.44363032	     39.22357133	      1.97204057	      5.91487356	    -21.96982753	     -5.58649403	     -4.48839827	     -7.68376709	     -7.11086823	      8.73314794	    -26.77848096	     10.04628522	     11.56140783	     -2.28433547	      9.51324043	     -2.02166283
      4.68000000	     10.14739483	      1.06000938	   -183.40305987	     -0.48536864	      0.84211561	     -0.44594559	     38.71172308	      1.50066712	      5.81047032	    -21.62490367	     -5.14256922	     -4.65736031	     -6.53949449	     -6.75079719	      9.09316220	    -28.48523457	      8.30967215	     13.10365546	     -2.18322304	      8.96873132	     -2.22409890
      4.69000000	     10.32497030	      0.59915171	   -183.17510621	     -0.49234349	      0.84482365	     -0.44818444	     38.15176240	      1.06364801	      5.66434150	    -21.21898067	     -4.71920821	     -4.82894099	     -5.30154360	     -6.47755893	      9.25565991	    -30.32248187	      6.91554390	     14.65622970	     -2.09103397	      8.47487237	     -2.37422701
      4.70000000	     10.47875735	      0.23833957	   -182.95729850	     -0.49916460	      0.84742834	     -0.45040642	     37.54406266	      0.72052905	      5.49433475	    -20.76292012	     -4.32572853	     -4.99346181	     -3.98437679	     -6.34970841	      9.15963769	    -32.28447099	      5.91812786	     16.11886415	     -2.01633274	      8.07627522	     -2.44431182
      4.71000000	     10.60481652	     -0.00401929	   -182.76245651	     -0.50584423	      0.84992152	     -0.45263551	     36.89156127	      0.49864215	      5.31081736	    -20.26975039	     -3.98665810	     -5.14713735	     -2.60687705	     -6.39947866	      8.80943467	    -34.34695316	      5.29918419	     17.34578563	     -1.96505236	      7.79544831	     -2.42440361
      4.72000000	     10.70005793	     -0.12762435	   -182.61916854	     -0.51241129	      0.85229499	     -0.45493456	     36.20004171	      0.41872561	      5.12680349	    -19.75300319	     -3.71428769	     -5.29902122	     -1.19401126	     -6.64662501	      8.17589800	    -36.47067859	      4.98540449	     18.25502850	     -1.93962601	      7.63089305	     -2.29325157
      4.73000000	     10.76587454	     -0.14668409	   -182.54387401	     -0.51886446	      0.85452258	     -0.45734883	     35.48407527	      0.48362026	      4.98825785	    -19.23522796	     -3.46181217	     -5.44345683	      0.23809861	     -7.08742410	      7.28671690	    -38.62394879	      4.91975980	     18.69584878	     -1.93897080	      7.56459114	     -2.04211105
